<?xml version="1.0" standalone="no"?>
<!DOCTYPE svg PUBLIC "-//W3C//DTD SVG 20010904//EN"
 "http://www.w3.org/TR/2001/REC-SVG-20010904/DTD/svg10.dtd">
<svg version="1.0" xmlns="http://www.w3.org/2000/svg"
 width="587.000000pt" height="234.000000pt" viewBox="0 0 587.000000 234.000000"
 preserveAspectRatio="xMidYMid meet">

<g transform="translate(0.000000,234.000000) scale(0.100000,-0.100000)"
fill="#000000" stroke="none">
<path d="M0 1413 c0 -862 2 -926 17 -895 22 45 66 74 121 80 45 5 46 4 32 -14
-8 -10 -18 -21 -21 -24 -15 -14 -24 -77 -14 -110 14 -50 121 -155 187 -184 63
-28 143 -46 201 -46 64 0 171 33 236 73 l58 36 92 -47 93 -47 106 0 c90 0 113
3 147 21 115 61 101 58 143 35 129 -73 126 -72 329 -73 104 0 262 4 353 10
114 7 178 7 207 0 24 -6 81 -7 135 -4 51 4 226 6 388 5 292 -2 371 -2 627 3
l132 3 33 33 c19 17 39 32 44 32 12 0 47 -38 64 -70 17 -32 70 -60 114 -60 45
0 166 28 181 41 12 12 62 11 84 -1 10 -5 57 -14 106 -20 157 -20 196 10 221
167 3 24 12 50 19 60 11 15 14 13 27 -18 9 -19 21 -54 28 -79 18 -66 31 -91
65 -126 39 -40 82 -54 167 -54 84 0 111 16 158 92 59 96 83 128 91 128 5 0 9
-37 9 -82 0 -72 3 -85 26 -115 36 -48 68 -60 187 -74 199 -22 208 -8 238 359
l12 152 214 0 213 0 0 870 0 870 -2935 0 -2935 0 0 -927z m4085 897 c3 -5 -3
-10 -15 -10 -12 0 -18 5 -15 10 3 6 10 10 15 10 5 0 12 -4 15 -10z m-38 -36
c-3 -3 -12 -4 -19 -1 -8 3 -5 6 6 6 11 1 17 -2 13 -5z m-97 -38 c-7 -7 -13 -7
-20 0 -6 6 -3 10 10 10 13 0 16 -4 10 -10z m-187 -63 c-3 -7 -17 -13 -32 -13
-23 1 -24 2 -9 14 22 17 48 16 41 -1z m217 -3 c0 -5 -2 -10 -4 -10 -3 0 -8 5
-11 10 -3 6 -1 10 4 10 6 0 11 -4 11 -10z m-3165 -16 c50 -9 75 -26 92 -61 8
-19 13 -36 10 -39 -8 -8 -47 19 -47 33 0 7 -4 13 -10 13 -5 0 -10 -10 -10 -22
0 -17 -3 -19 -12 -10 -16 16 -65 15 -71 0 -3 -10 -7 -10 -20 0 -13 11 -17 10
-26 -7 -7 -13 -8 -22 -1 -26 12 -8 13 -35 1 -35 -5 0 -12 11 -15 25 -4 17 -13
25 -29 25 -12 0 -35 7 -51 15 -15 8 -53 15 -83 15 -45 0 -54 -3 -49 -15 3 -9
0 -15 -8 -15 -7 0 -21 -15 -30 -32 -15 -27 -17 -48 -12 -113 12 -159 12 -168
-3 -173 -9 -3 -12 0 -9 9 3 8 1 41 -4 74 -10 66 -11 90 -4 150 3 22 5 48 5 57
1 9 7 23 14 30 7 7 23 27 35 44 20 30 41 39 112 50 93 14 158 21 175 17 11 -2
34 -6 50 -9z m4546 -10 c10 -12 24 -15 53 -11 46 6 116 -21 139 -53 8 -11 16
-17 19 -14 4 3 9 -4 13 -15 3 -12 11 -21 17 -21 15 0 47 -42 48 -62 0 -10 7
-18 15 -18 9 0 15 -9 15 -25 0 -14 4 -25 8 -25 5 0 9 -7 9 -15 0 -8 -4 -15 -9
-15 -5 0 -2 -7 7 -17 11 -11 15 -26 11 -44 -3 -19 0 -34 11 -44 8 -9 13 -18
10 -22 -5 -5 28 -40 63 -67 9 -6 23 -23 33 -38 l17 -28 -30 0 c-16 0 -30 4
-30 10 0 5 -12 13 -27 17 l-28 6 28 10 28 9 -25 21 c-35 30 -80 117 -67 130 6
6 4 18 -6 33 -8 13 -12 28 -8 33 3 6 0 9 -7 6 -13 -5 -48 53 -48 79 0 20 -72
87 -87 81 -8 -2 -11 0 -8 5 3 6 -4 10 -17 9 -13 0 -17 -3 -10 -6 23 -9 12 -25
-13 -20 -25 4 -25 4 -8 -13 11 -9 25 -20 33 -23 10 -3 7 -6 -7 -6 -30 -1 -36
-15 -12 -31 10 -8 19 -21 19 -29 0 -8 7 -23 17 -33 25 -28 6 -35 -23 -8 -20
20 -38 25 -95 28 -61 4 -68 2 -63 -12 4 -11 1 -16 -10 -16 -9 0 -16 5 -16 11
0 8 -4 8 -14 0 -11 -9 -15 -9 -18 0 -3 8 -11 10 -22 6 -14 -6 -16 -14 -10 -52
5 -39 4 -45 -11 -45 -11 0 -15 -5 -11 -15 3 -10 -1 -16 -12 -16 -39 -4 -48 -6
-65 -13 -24 -11 -29 -4 -30 40 -1 20 -3 32 -5 25 -2 -6 -8 -9 -13 -5 -5 3 -9
0 -9 -5 0 -6 -11 -11 -24 -11 -26 0 -86 -47 -86 -67 0 -7 -4 -13 -9 -13 -14 0
-25 21 -15 29 11 8 14 41 4 41 -4 0 -7 8 -7 18 0 73 -2 79 -28 75 -13 -3 -30
-11 -36 -19 -6 -8 -18 -14 -27 -14 -18 0 33 47 61 56 24 8 21 24 -5 25 -22 0
-22 1 2 11 14 6 29 10 34 9 15 -3 76 20 76 30 0 5 7 9 15 9 8 0 15 5 15 10 0
13 -47 13 -53 0 -3 -6 -4 -5 -3 2 2 8 22 14 54 16 48 3 52 5 52 28 0 13 6 24
13 24 8 0 25 9 38 21 30 26 62 39 99 39 16 0 32 5 35 10 9 15 41 12 56 -6z
m-1668 -11 c-7 -2 -21 -2 -30 0 -10 3 -4 5 12 5 17 0 24 -2 18 -5z m227 -38
c7 -8 9 -15 6 -15 -4 0 -14 7 -22 15 -9 8 -11 15 -6 15 5 0 15 -7 22 -15z
m-197 -12 c-7 -2 -21 -2 -30 0 -10 3 -4 5 12 5 17 0 24 -2 18 -5z m-98 -53
c-3 -5 -10 -10 -16 -10 -5 0 -9 5 -9 10 0 6 7 10 16 10 8 0 12 -4 9 -10z
m-2686 -140 c5 0 6 -11 3 -25 -2 -14 -8 -25 -13 -25 -5 0 -8 44 -7 98 2 88 2
91 5 25 2 -40 8 -73 12 -73z m2225 89 c-12 -13 -27 -19 -42 -16 -22 4 -23 2
-18 -24 4 -22 2 -29 -9 -29 -8 0 -15 -4 -15 -10 0 -12 23 -64 31 -70 4 -3 17
-43 28 -89 21 -82 34 -111 52 -111 5 0 9 15 9 33 l1 32 19 -24 c11 -13 20 -38
20 -57 0 -19 5 -34 10 -34 6 0 10 -6 10 -14 0 -7 7 -19 15 -26 18 -15 20 -40
2 -40 -21 0 -74 52 -98 95 -12 22 -35 64 -50 93 -16 29 -29 68 -29 87 0 18 -7
40 -15 48 -22 23 -43 147 -24 147 5 0 9 7 9 14 0 11 15 16 53 18 28 2 54 2 56
1 2 -2 -4 -12 -15 -24z m144 12 c6 -1 12 -5 12 -11 0 -17 -86 -12 -101 6 -11
14 -8 15 32 10 24 -2 50 -5 57 -5z m-2708 -51 c0 -5 -7 -7 -15 -4 -8 4 -15 8
-15 10 0 2 7 4 15 4 8 0 15 -4 15 -10z m2790 -30 c11 -11 26 -20 33 -20 16 0
-13 -20 -30 -20 -15 0 -53 36 -53 50 0 17 29 11 50 -10z m1020 6 c0 -2 -7 -6
-15 -10 -8 -3 -15 -1 -15 4 0 6 7 10 15 10 8 0 15 -2 15 -4z m-1521 -65 c12
-12 26 -21 32 -21 21 0 -2 -18 -31 -24 -17 -3 -41 -17 -54 -31 -24 -26 -42
-32 -48 -15 -1 5 -33 13 -70 17 -52 6 -65 11 -59 21 4 7 17 14 29 15 17 1 19
4 9 16 -10 12 -9 13 1 7 7 -4 24 0 40 11 15 10 34 21 42 25 27 12 88 0 109
-21z m2059 20 c1 -1 -11 -15 -29 -32 -17 -17 -33 -28 -35 -26 -3 2 2 10 11 17
8 7 15 20 15 30 0 16 9 18 38 11z m-1463 -34 c16 -4 14 -5 -6 -6 -17 -1 -29 5
-33 15 -5 13 -3 14 6 6 7 -5 22 -12 33 -15z m-1815 -37 c0 -5 -3 -10 -7 -10
-5 0 -9 -11 -9 -25 -2 -20 3 -25 21 -25 13 0 27 5 30 10 8 12 47 3 57 -13 4
-6 4 -15 1 -21 -3 -5 -1 -6 5 -2 7 4 12 3 12 -3 0 -6 14 -14 32 -19 l32 -8
-32 -13 c-28 -12 -36 -10 -93 18 -34 17 -75 31 -91 31 -15 0 -28 4 -28 9 0 21
13 40 23 34 5 -3 7 -1 4 5 -11 17 4 42 24 42 10 0 19 -4 19 -10z m1947 4 c-3
-3 -12 -4 -19 -1 -8 3 -5 6 6 6 11 1 17 -2 13 -5z m-657 -64 c0 -23 -1 -24
-35 -8 -34 15 -32 28 5 28 23 0 30 -4 30 -20z m802 11 c2 -4 22 -10 46 -14 23
-3 40 -2 38 1 -2 4 25 8 61 10 55 3 65 1 60 -11 -4 -10 2 -17 16 -21 39 -10 9
-18 -67 -19 -53 0 -82 5 -100 16 -14 10 -27 13 -31 7 -8 -13 -65 9 -65 26 0
15 36 20 42 5z m-502 -11 c0 -5 -2 -10 -4 -10 -3 0 -8 5 -11 10 -3 6 -1 10 4
10 6 0 11 -4 11 -10z m-491 -23 c15 -19 2 -28 -21 -16 -23 12 -73 -4 -82 -27
-3 -8 -11 -14 -17 -14 -8 0 -7 6 3 18 8 9 18 25 21 35 8 21 79 24 96 4z m249
-82 c3 -72 -6 -82 -57 -59 -40 19 -66 60 -52 81 12 19 47 33 76 30 29 -2 30
-4 33 -52z m-2228 19 c0 -8 -5 -12 -10 -9 -6 4 -8 11 -5 16 9 14 15 11 15 -7z
m1097 10 c-3 -3 -12 -4 -19 -1 -8 3 -5 6 6 6 11 1 17 -2 13 -5z m3523 -44 c10
-10 26 -30 35 -44 17 -26 17 -26 -9 -26 -38 0 -96 55 -96 92 0 30 0 30 26 13
14 -9 34 -25 44 -35z m248 4 c7 -8 22 -14 33 -14 10 0 19 -4 19 -8 0 -12 -68
-14 -75 -2 -3 5 -13 10 -21 10 -8 0 -25 9 -37 20 -18 17 -19 22 -7 30 14 9 62
-10 88 -36z m-4728 16 c0 -5 -4 -10 -10 -10 -5 0 -10 5 -10 10 0 6 5 10 10 10
6 0 10 -4 10 -10z m4580 -4 c0 3 15 -6 33 -20 17 -13 44 -28 60 -31 15 -4 27
-11 27 -16 0 -12 -27 -12 -35 0 -3 5 -20 13 -37 17 -36 7 -63 21 -92 46 -19
17 -18 17 12 8 18 -5 32 -6 32 -4z m-2706 -12 c25 -65 -11 -124 -75 -124 -47
0 -82 38 -77 84 3 27 8 32 41 37 20 3 40 9 44 12 13 13 61 7 67 -9z m992 4
c-3 -7 -9 -21 -12 -30 -4 -10 -11 -18 -16 -18 -5 0 -7 -4 -4 -9 7 -11 -22 -36
-31 -27 -3 3 0 14 8 23 9 10 20 30 27 46 6 15 17 27 23 27 6 0 8 -6 5 -12z
m-2181 -8 c3 -5 1 -10 -4 -10 -6 0 -11 5 -11 10 0 6 2 10 4 10 3 0 8 -4 11
-10z m2120 0 c3 -5 1 -10 -4 -10 -6 0 -11 5 -11 10 0 6 2 10 4 10 3 0 8 -4 11
-10z m-3140 -11 c11 -17 0 -20 -21 -4 -17 13 -17 14 -2 15 9 0 20 -5 23 -11z
m214 -40 c-23 -14 -36 -10 -16 5 12 9 14 16 8 21 -6 3 -11 11 -11 18 0 6 7 1
16 -12 14 -19 14 -25 3 -32z m3111 -1 c0 -17 -40 -7 -50 11 -15 30 -13 32 20
13 16 -9 30 -20 30 -24z m-3463 -4 c2 -13 1 -15 -4 -4 -3 8 -11 19 -17 23 -7
6 -6 7 4 4 8 -2 16 -12 17 -23z m1121 9 c-9 -10 -13 -24 -11 -30 3 -7 0 -13
-6 -13 -12 0 -13 6 -5 38 4 12 13 22 22 22 14 0 14 -2 0 -17z m255 -3 c6 -22
0 -25 -22 -11 -7 5 -10 14 -7 20 11 17 23 13 29 -9z m1127 -39 c0 -5 9 -11 20
-14 13 -3 18 -10 14 -21 -8 -20 -30 -21 -38 -1 -8 22 -26 18 -26 -6 0 -21 0
-21 -18 1 -19 24 -42 20 -42 -6 0 -8 -4 -14 -10 -14 -25 0 7 50 40 63 24 9 60
8 60 -2z m-1370 -26 c0 -1 -9 -5 -20 -8 -12 -3 -20 0 -20 8 0 8 8 11 20 8 11
-3 20 -7 20 -8z m44 7 c2 -4 -4 -8 -14 -8 -10 0 -16 4 -14 8 3 4 9 8 14 8 5 0
11 -4 14 -8z m81 -22 c18 -19 17 -20 -11 -20 -37 0 -64 35 -29 38 12 1 30 -7
40 -18z m3912 6 c-4 -10 -1 -13 9 -9 7 3 14 0 14 -7 0 -18 -33 -7 -36 13 -1 9
2 17 8 17 6 0 8 -7 5 -14z m-147 -6 c4 0 10 -12 13 -26 5 -27 7 -26 -48 -10
-29 9 -44 19 -39 27 3 5 9 7 14 4 5 -3 12 0 15 6 4 5 14 8 22 5 8 -3 18 -6 23
-6z m-3865 -12 c3 -3 -3 -8 -13 -10 -11 -3 -19 0 -19 7 0 13 21 14 32 3z
m2168 -5 c-7 -2 -19 -2 -25 0 -7 3 -2 5 12 5 14 0 19 -2 13 -5z m337 -36 c0
-24 -4 -47 -9 -52 -5 -6 -12 -32 -15 -60 -3 -27 -10 -78 -16 -112 -5 -35 -14
-90 -18 -124 -9 -66 -20 -79 -69 -79 -28 0 -33 -3 -33 -25 0 -14 -4 -25 -10
-25 -6 0 -10 -37 -10 -90 l0 -90 30 0 c29 0 30 -2 30 -42 0 -72 -31 -138 -64
-138 -9 0 -16 -4 -16 -10 0 -5 9 -10 20 -10 11 0 20 5 20 10 0 6 5 10 10 10 6
0 10 -9 10 -19 0 -11 -4 -23 -10 -26 -5 -3 -10 -30 -10 -60 0 -30 -4 -57 -10
-60 -5 -3 -10 -27 -10 -52 0 -59 -20 -83 -70 -83 -20 0 -41 -5 -48 -12 -16
-16 -62 9 -62 34 0 10 -4 18 -9 18 -5 0 -13 9 -16 20 -3 11 -13 27 -22 35 -14
15 -14 17 3 30 11 8 29 15 42 15 12 0 22 4 22 9 0 5 12 11 28 13 23 3 28 8 30
38 2 22 13 42 30 57 21 18 23 23 10 23 -22 0 -58 -47 -58 -76 0 -17 -6 -24
-20 -24 -11 0 -20 -4 -20 -10 0 -5 -11 -10 -24 -10 -14 0 -28 -4 -31 -10 -13
-21 -43 -10 -55 20 -7 17 -16 30 -21 30 -5 0 -9 9 -9 19 0 11 -4 21 -9 23 -6
2 -11 53 -12 114 -2 107 -1 113 22 135 24 23 63 49 74 49 3 0 5 -9 5 -19 0
-11 3 -21 8 -23 9 -4 41 -57 49 -80 3 -10 9 -18 13 -18 18 0 29 30 34 95 3 39
10 103 16 143 5 39 14 102 18 140 12 92 17 102 59 102 51 0 63 18 63 94 0 37
4 66 10 66 6 0 10 14 10 30 0 17 5 30 10 30 6 0 10 14 10 30 0 23 5 30 19 30
11 0 23 5 26 10 3 6 17 10 31 10 22 0 24 -4 24 -43z m-1320 23 c0 -5 -5 -10
-11 -10 -6 0 -35 -23 -65 -51 -44 -43 -51 -55 -43 -70 5 -11 19 -19 29 -19 11
0 20 -4 20 -10 0 -5 5 -10 11 -10 6 0 22 -9 36 -20 29 -23 55 -25 85 -9 17 9
18 13 7 21 -10 7 -8 8 8 5 13 -3 26 -1 29 4 3 5 13 9 23 9 20 0 55 33 45 43
-5 5 -41 -10 -54 -23 -3 -3 -14 -6 -25 -8 -93 -13 -105 -14 -105 -3 0 6 -7 11
-15 11 -18 0 -20 16 -2 23 7 3 2 9 -13 15 -25 11 -25 11 -2 11 13 1 32 -8 44
-19 29 -26 44 -26 17 1 -16 16 -18 23 -8 35 6 8 17 14 24 14 8 0 15 4 17 8 2
5 16 12 31 16 16 4 26 3 23 -2 -3 -5 1 -9 9 -9 8 0 13 5 12 11 -3 15 48 20 70
7 16 -9 15 -10 -7 -11 -14 0 -20 -4 -14 -8 6 -4 13 -14 16 -22 8 -23 58 -24
58 -2 0 14 2 15 10 2 7 -11 4 -20 -13 -33 -12 -10 -17 -16 -11 -13 8 4 12 -12
13 -48 0 -30 10 -75 21 -101 20 -47 27 -148 12 -172 -4 -7 -21 -13 -37 -13
-17 0 -79 0 -140 0 -60 -1 -131 -3 -157 -5 -37 -3 -48 0 -48 11 0 8 -6 14 -12
15 -9 0 -9 2 -2 5 6 3 9 16 6 29 -4 23 -2 24 27 15 20 -6 33 -5 37 2 4 6 3 8
-3 5 -5 -3 -10 0 -10 8 0 10 5 11 19 4 10 -5 18 -14 18 -18 0 -5 9 -11 19 -14
13 -3 18 -1 14 8 -3 9 2 12 15 8 12 -3 22 1 25 11 8 20 -32 22 -52 4 -11 -11
-12 -9 -7 8 5 15 0 23 -16 31 -13 6 -36 16 -53 24 -57 26 -125 114 -125 161 0
10 -4 18 -10 18 -17 0 -11 22 12 41 11 11 28 19 36 19 8 0 25 11 38 25 13 14
33 25 46 26 13 0 32 4 43 9 27 12 35 12 35 0z m1200 -30 c0 -16 -4 -30 -10
-30 -5 0 -10 -13 -10 -30 0 -16 -4 -30 -10 -30 -6 0 -10 -26 -10 -58 0 -65
-11 -82 -53 -82 -29 0 -29 0 -23 48 4 26 9 74 12 106 6 64 13 75 59 92 44 17
45 17 45 -16z m473 -2 c20 -8 27 -17 27 -39 0 -15 5 -31 10 -34 6 -3 10 -19
10 -35 0 -16 5 -32 10 -35 6 -3 10 -19 10 -36 l0 -29 -110 0 c-110 0 -110 0
-110 -24 0 -14 -4 -28 -10 -31 -5 -3 -10 -15 -10 -26 0 -16 -7 -19 -41 -19
l-41 0 6 73 c10 134 18 192 27 202 5 5 9 17 9 26 0 10 5 19 10 21 21 7 176 -4
203 -14z m-3675 -5 c-10 -2 -26 -2 -35 0 -10 3 -2 5 17 5 19 0 27 -2 18 -5z
m3942 3 c0 -2 -7 -7 -16 -10 -8 -3 -12 -2 -9 4 6 10 25 14 25 6z m-2283 -28
c-3 -8 -6 -5 -6 6 -1 11 2 17 5 13 3 -3 4 -12 1 -19z m-827 2 c0 -5 -4 -10
-10 -10 -5 0 -10 5 -10 10 0 6 5 10 10 10 6 0 10 -4 10 -10z m3974 1 c3 -5 -3
-11 -15 -14 -16 -4 -18 -3 -8 9 13 16 16 17 23 5z m-584 -19 c0 -21 -51 -54
-68 -43 -9 5 -1 16 25 34 45 32 43 32 43 9z m-246 -7 c-25 -19 -40 -19 -24 0
7 8 20 15 28 15 13 0 12 -3 -4 -15z m-1024 -42 c0 -24 -25 -9 -28 17 -3 21 -2
22 12 11 9 -7 16 -20 16 -28z m1490 -8 c0 -19 -4 -35 -10 -35 -5 0 -10 -13
-10 -30 0 -16 -4 -30 -10 -30 -5 0 -10 -11 -10 -25 0 -24 -3 -25 -60 -25 -33
0 -60 4 -60 10 0 6 5 10 10 10 6 0 10 9 10 20 0 11 5 20 10 20 6 0 10 9 10 20
0 11 5 20 10 20 6 0 10 6 10 13 0 25 45 67 73 67 24 0 27 -3 27 -35z m-3502 2
c7 -5 11 -12 8 -14 -5 -6 -99 18 -111 28 -13 13 87 -1 103 -14z m1699 -7 c3
-11 9 -20 14 -20 5 0 9 -9 9 -20 0 -13 -7 -20 -20 -20 -11 0 -20 -4 -20 -10 0
-5 -18 -10 -40 -10 l-40 0 0 -50 0 -50 -36 0 c-27 0 -37 5 -41 20 -3 11 -9 20
-14 20 -5 0 -9 6 -9 13 0 7 -9 23 -20 35 -11 12 -20 28 -20 36 0 8 -6 16 -12
19 -19 6 60 37 96 37 17 0 38 5 46 10 8 5 35 10 58 10 36 0 45 -4 49 -20z
m1939 -87 c-3 -60 -9 -133 -13 -163 l-8 -55 -45 -3 c-80 -4 -90 -9 -90 -42 0
-17 -4 -30 -10 -30 -5 0 -10 -13 -10 -28 0 -15 -4 -32 -9 -38 -16 -15 -19
-254 -3 -254 9 0 12 33 12 130 0 80 4 130 10 130 6 0 10 13 10 29 0 17 5 33
10 36 6 3 10 17 10 31 0 23 3 24 55 24 50 0 55 -2 61 -25 3 -14 3 -35 -1 -48
-4 -12 -11 -76 -16 -142 -33 -411 -32 -405 -70 -405 -16 0 -29 -4 -29 -10 0
-5 -7 -10 -15 -10 -8 0 -15 -4 -15 -10 0 -5 -9 -10 -19 -10 -24 0 -31 -19 -31
-82 0 -47 -1 -50 -22 -44 -13 3 -36 6 -52 6 -28 0 -28 1 -22 47 4 27 10 100
14 163 5 63 11 122 15 130 4 8 9 60 11 115 2 55 7 121 11 148 4 26 4 47 -1 47
-10 0 -54 -65 -54 -80 0 -5 -4 -10 -10 -10 -5 0 -10 -9 -10 -19 0 -11 -3 -21
-7 -23 -10 -4 -42 -57 -50 -80 -3 -10 -9 -18 -14 -18 -5 0 -9 -9 -9 -20 0 -11
-4 -20 -9 -20 -5 0 -14 -13 -21 -30 -7 -16 -16 -30 -21 -30 -5 0 -9 -9 -9 -20
0 -11 -4 -20 -9 -20 -5 0 -11 -8 -14 -17 -8 -24 -40 -77 -49 -81 -5 -2 -8 -12
-8 -22 0 -10 -3 -20 -7 -22 -10 -4 -42 -57 -50 -80 -4 -15 -18 -18 -82 -18
-73 0 -77 1 -88 27 -7 15 -13 37 -13 50 0 13 -4 23 -9 23 -5 0 -12 16 -15 35
-3 19 -9 51 -12 70 -3 19 -10 35 -15 35 -18 0 -8 32 11 37 19 5 20 14 20 134
l0 129 48 0 c42 0 48 -3 59 -27 12 -29 21 -66 30 -121 3 -18 9 -35 14 -38 5
-3 9 -16 9 -30 0 -13 3 -24 6 -24 11 0 34 29 34 44 0 9 5 16 10 16 6 0 10 9
10 19 0 11 3 21 8 23 6 3 36 55 66 115 6 13 14 23 19 23 4 0 7 9 7 20 0 11 5
20 10 20 6 0 10 9 10 20 0 11 3 20 8 20 4 0 12 10 18 23 30 60 60 112 67 115
4 2 7 12 7 22 0 10 3 20 8 22 4 2 18 24 31 51 l24 47 67 0 c71 0 90 10 90 46
0 13 5 26 10 29 6 3 10 17 10 30 0 13 5 27 10 30 6 3 10 15 10 26 0 17 7 19
61 19 l61 0 -6 -107z m207 100 c-7 -2 -19 -2 -25 0 -7 3 -2 5 12 5 14 0 19 -2
13 -5z m-594 -37 c11 -13 -11 -62 -85 -191 -52 -89 -58 -98 -74 -112 -37 -30
-53 -7 -89 128 -11 41 -23 82 -27 92 -4 12 -1 17 10 17 9 0 16 4 16 9 0 5 9
13 20 16 11 4 32 17 46 30 36 33 159 40 183 11z m-1490 -85 c12 -16 21 -34 21
-40 0 -6 5 -11 10 -11 6 0 10 -9 10 -20 0 -11 4 -20 9 -20 5 0 11 -8 14 -17 8
-24 40 -77 50 -81 4 -2 7 -12 7 -23 0 -10 5 -19 10 -19 6 0 10 -9 10 -19 0
-11 3 -21 8 -23 7 -3 42 -62 42 -71 0 -6 -77 -87 -83 -87 -2 0 -15 21 -28 48
-33 65 -85 112 -124 112 -8 0 -15 5 -15 10 0 6 -12 10 -26 10 -27 0 -74 43
-74 68 0 6 -4 12 -10 12 -5 0 -10 7 -10 16 0 8 -7 22 -15 30 -23 23 -18 32 18
36 31 3 32 5 35 51 3 46 4 47 37 47 19 0 37 5 40 10 12 19 44 10 64 -19z
m1061 -40 c0 -17 5 -33 10 -36 6 -3 10 -22 10 -41 0 -19 5 -34 10 -34 6 0 10
-15 10 -34 0 -19 5 -38 10 -41 6 -3 10 -17 10 -31 0 -14 4 -33 9 -42 4 -9 11
-34 14 -54 l6 -38 -55 0 -54 0 0 -131 c0 -119 -2 -130 -17 -127 -12 2 -19 14
-21 33 -2 17 -8 34 -13 39 -5 6 -9 22 -9 37 0 15 -4 31 -10 34 -5 3 -10 19
-10 35 0 16 -4 32 -10 35 -5 3 -10 19 -10 36 0 16 -4 29 -9 29 -5 0 -11 15
-14 33 -13 75 -20 97 -28 97 -5 0 -9 -10 -9 -23 0 -13 -4 -27 -9 -32 -5 -6
-12 -39 -15 -75 -8 -104 -22 -204 -30 -222 -7 -14 -21 -18 -67 -18 -33 0 -59
4 -59 10 0 6 -14 10 -31 10 l-31 0 6 53 c3 28 10 81 15 117 23 144 32 207 37
258 l6 52 45 0 c46 0 73 16 73 44 0 9 6 25 12 36 12 18 24 20 120 20 l108 0 0
-29z m-3333 -83 c-3 -8 -6 -5 -6 6 -1 11 2 17 5 13 3 -3 4 -12 1 -19z m-637
-4 c60 -21 98 -43 136 -80 31 -31 31 -31 13 -55 -10 -13 -19 -28 -19 -32 0
-13 -27 -37 -42 -37 -8 0 -20 9 -28 20 -8 11 -22 20 -32 20 -10 0 -18 3 -18 8
0 4 -18 13 -40 20 -74 23 -93 13 -83 -41 4 -18 12 -27 24 -27 11 0 19 -4 19
-8 0 -4 22 -19 50 -33 27 -13 50 -27 50 -31 0 -5 6 -8 13 -8 21 0 80 -61 105
-108 25 -49 30 -147 11 -185 -21 -39 -93 -102 -134 -116 -48 -17 -232 -18
-248 -2 -6 6 -19 11 -29 11 -10 0 -18 4 -18 8 0 4 -14 16 -30 26 -41 24 -70
56 -70 78 0 9 17 35 37 57 l36 40 31 -17 c17 -9 33 -19 36 -22 8 -8 52 -28 92
-41 31 -10 42 -10 63 1 14 7 25 21 25 30 0 19 -51 68 -92 89 -16 8 -28 18 -28
23 0 4 -7 8 -15 8 -8 0 -24 8 -36 18 -68 54 -89 76 -89 88 0 8 -3 14 -8 14
-21 0 -42 133 -22 145 6 3 10 15 10 27 0 27 87 108 117 108 12 0 23 5 23 10 0
16 140 11 190 -6z m3443 -129 c-1 -22 -6 -65 -10 -95 -7 -50 -10 -55 -35 -58
l-28 -3 0 65 c0 37 4 74 9 84 5 9 12 25 15 35 4 12 14 17 28 15 20 -3 23 -8
21 -43z m-2888 -45 c3 -5 17 -10 31 -10 13 0 24 -4 24 -10 0 -5 7 -10 15 -10
21 0 55 -36 83 -86 29 -55 29 -74 -2 -74 -14 0 -28 -4 -31 -10 -3 -5 -27 -10
-52 -10 -35 0 -46 4 -50 19 -12 45 -97 54 -137 15 -22 -23 -26 -35 -26 -86 0
-49 4 -63 25 -83 36 -37 92 -34 134 6 26 24 39 30 59 25 15 -3 42 -8 60 -12
19 -4 36 -12 38 -18 13 -34 -83 -166 -120 -166 -9 0 -16 -4 -16 -10 0 -6 -38
-10 -94 -10 -78 0 -102 4 -137 23 -94 48 -129 112 -129 235 0 47 6 102 12 121
18 51 88 119 145 141 52 20 158 26 168 10z m760 -147 c4 -87 8 -212 9 -278 l1
-120 -87 -3 c-83 -3 -88 -2 -88 18 0 13 -7 20 -20 20 -11 0 -20 -4 -20 -10 0
-5 -9 -10 -19 -10 -11 0 -23 -4 -26 -10 -8 -14 -97 -13 -132 1 -60 24 -79 35
-100 56 -13 12 -23 29 -23 37 0 8 -5 16 -12 18 -17 6 -14 316 4 375 l12 43 89
0 88 0 -5 -82 c-3 -46 -8 -120 -12 -166 -5 -82 -5 -84 23 -108 31 -27 53 -30
86 -12 46 24 47 28 47 212 l0 176 89 0 88 0 8 -157z m243 125 c7 -7 12 -20 12
-30 0 -24 9 -23 31 3 15 17 30 21 79 21 51 0 64 -4 81 -23 17 -20 22 -21 44
-9 14 7 25 17 25 22 0 4 9 8 19 8 11 0 23 5 26 10 3 6 28 10 55 10 27 0 52 -4
55 -10 3 -5 16 -10 29 -10 30 0 81 -49 102 -97 20 -47 23 -328 4 -374 -11 -26
-17 -29 -61 -29 -27 0 -68 6 -90 13 -39 12 -40 13 -34 47 3 19 10 60 15 90 5
30 12 70 16 87 8 41 0 73 -26 103 -18 20 -23 22 -43 11 -20 -11 -24 -24 -35
-119 -8 -70 -9 -128 -3 -167 5 -33 7 -62 6 -63 -3 -4 -57 -5 -144 -3 l-44 1 7
99 c9 138 -14 261 -50 261 -4 0 -16 -7 -26 -17 -16 -14 -18 -33 -18 -164 0
-81 -3 -154 -6 -163 -5 -13 -23 -16 -90 -16 l-84 0 0 133 c0 72 -5 185 -11
250 -5 65 -7 122 -4 127 9 14 149 12 163 -2z m810 -20 c4 -33 7 -34 34 -8 34
32 131 31 159 -1 20 -24 37 -24 58 -1 9 9 32 23 52 30 43 14 119 16 119 2 0
-5 11 -10 25 -10 28 0 82 -48 102 -90 26 -54 33 -183 18 -332 l-8 -78 -53 0
c-30 0 -74 6 -100 12 -42 12 -45 15 -39 38 17 67 27 131 32 195 4 66 3 72 -22
95 l-26 24 -24 -26 c-24 -26 -25 -33 -27 -185 l-3 -158 -45 -3 c-25 -2 -64 -1
-87 3 l-43 6 0 139 c0 135 -7 177 -37 207 -6 7 -18 11 -25 8 -27 -11 -38 -70
-38 -213 l0 -142 -90 0 -90 0 0 260 0 261 78 -3 c76 -3 77 -3 80 -30z m1242
-278 c0 -6 27 -10 60 -10 l60 0 0 -38 c0 -44 -14 -62 -48 -62 -13 0 -20 -4
-17 -10 3 -5 15 -10 26 -10 16 0 19 -7 19 -47 0 -26 -5 -62 -12 -80 -11 -31
-14 -33 -63 -33 -27 0 -67 5 -87 11 l-38 10 0 62 c1 83 12 97 84 97 31 0 56 5
56 10 0 6 -27 10 -60 10 l-60 0 0 38 c0 21 5 43 12 50 14 14 68 16 68 2z
m1100 -285 c0 -30 -5 -66 -12 -80 -10 -22 -17 -25 -60 -25 l-48 0 0 59 c0 56
2 60 30 73 17 7 30 16 30 20 0 5 14 8 30 8 30 0 30 -1 30 -55z"/>
<path d="M2940 1626 c0 -16 27 -29 41 -20 19 11 9 34 -16 34 -15 0 -25 -6 -25
-14z"/>
<path d="M2740 1591 c0 -23 19 -32 42 -19 24 12 11 38 -18 38 -17 0 -24 -6
-24 -19z"/>
<path d="M2935 1260 c-4 -6 -13 -9 -21 -6 -19 7 -56 -26 -49 -45 3 -9 11 -16
18 -16 7 0 18 -2 26 -4 8 -2 19 5 25 17 6 12 18 18 26 16 13 -5 13 -3 0 13 -8
10 -13 20 -12 22 2 3 1 7 -1 9 -3 3 -8 0 -12 -6z"/>
<path d="M2965 1250 c-3 -5 -3 -10 2 -11 4 0 16 -2 26 -4 22 -4 22 2 -2 15
-13 7 -22 7 -26 0z"/>
</g>
</svg>
